# xmcd CD database file
#
# Track frame offsets:
#	150
#	20186
#	38924
#	64165
#	88859
#	114694
#	152106
#	175445
#	197485
#	225723
#	247945
#	266209
#	283817
#	301257
#	332738
#
# Disc length: 4719 seconds
#
# Revision: 1
# Processed by: cddbd v1.5.2PL0 Copyright (c) Steve Scherf et al.
# Submitted via: CDex 1.51
#
DISCID=db126d0f
DTITLE=Marvin Gaye - Got To Give It Up: The Funk Collection
DYEAR=2004
DGENRE=Funk
TTITLE0="T" Plays It Cool [instrumental]
TTITLE1=Got To Give It Up (Part 1)
TTITLE2=Funk Me
TTITLE3=Inner City Blues (Make Me Wanna Holler)
TTITLE4=You're The Man (Parts 1 and 2)
TTITLE5=A Funky Space Reincarnation
TTITLE6=Ego Tripping Out
TTITLE7=Checking Out (Double Clutch)
TTITLE8=When Did You Stop Loving Me, When Did I Stop Loving You 
TTITLE9=Love Party
TTITLE10=Since I Had You
TTITLE11=Time To Get It Together
TTITLE12=The World Is Rated X
TTITLE13=In Our Lifetime
TTITLE14=After The Dance
EXTD=YEAR: 2004
EXTT0=
EXTT1=
EXTT2=
EXTT3=
EXTT4=
EXTT5=
EXTT6=
EXTT7=
EXTT8=
EXTT9=
EXTT10=
EXTT11=
EXTT12=
EXTT13=
EXTT14=
PLAYORDER=
